<svg width="15" height="19" xmlns="http://www.w3.org/2000/svg" xmlns:xlink="http://www.w3.org/1999/xlink" overflow="hidden"><defs><clipPath id="clip0"><rect x="232" y="591" width="15" height="19"/></clipPath></defs><g clip-path="url(#clip0)" transform="translate(-232 -591)"><path d="M13.8188 2.83766 13.6166 2.63547 13.9303 2.30734C14.0952 2.12125 14.1353 1.74484 13.7056 1.29938 13.2714 0.864844 12.825 0.90625 12.6611 1.07063L7.91203 5.50328 9.42766 7.01891 13.1847 3.08734 13.3769 3.27953C13.4511 3.34612 13.4581 3.46002 13.3925 3.53516L10.5278 6.40016C10.4037 6.52006 10.4002 6.71789 10.5201 6.84203 10.64 6.96617 10.8379 6.96961 10.962 6.84972 10.9646 6.8472 10.9672 6.84464 10.9697 6.84203L13.8348 3.97703C14.1445 3.65773 14.1373 3.14808 13.8188 2.83766Z" fill="#D8C1AC" transform="matrix(1 0 0 1.26667 232 591)"/><path d="M4.38562 9.14359C4.26698 9.26516 4.15239 9.39062 4.04187 9.52L2.6875 11.0492 3.88094 12.2428 5.41016 10.8875C5.53953 10.7775 5.66505 10.6629 5.78672 10.5438L8.95203 7.49531 7.43484 5.97812Z" fill="#D8C1AC" transform="matrix(1 0 0 1.26667 232 591)"/><path d="M1.13812 13.0552C1.09411 13.1339 1.11074 13.2327 1.17813 13.2927L0.821406 13.873C0.773422 13.9515 0.798228 14.0542 0.876812 14.1021 0.902495 14.1178 0.931942 14.1263 0.962031 14.1266 0.993538 14.1264 1.02436 14.1174 1.05094 14.1005L1.62547 13.7395C1.68497 13.8054 1.78191 13.8219 1.85984 13.7794L3.34422 12.6634 2.26375 11.5831Z" fill="#D8C1AC" transform="matrix(1 0 0 1.26667 232 591)"/></g></svg>