<svg width="70" height="70" xmlns="http://www.w3.org/2000/svg" xmlns:xlink="http://www.w3.org/1999/xlink" overflow="hidden"><defs><clipPath id="clip0"><rect x="118" y="455" width="70" height="70"/></clipPath></defs><g clip-path="url(#clip0)" transform="translate(-118 -455)"><path d="M160.327 459.196C159.952 459.049 159.529 459.234 159.382 459.609 159.235 459.984 159.419 460.407 159.794 460.554 173.48 465.918 180.225 481.36 174.862 495.045 169.498 508.731 154.055 515.477 140.37 510.113 139.995 509.965 139.572 510.15 139.425 510.525 139.278 510.9 139.462 511.323 139.837 511.47 142.873 512.661 146.094 513.312 149.354 513.392L149.354 518.51 140.24 518.51C138.629 518.51 137.323 519.816 137.323 521.427L138.781 521.427C138.781 520.622 139.434 519.969 140.24 519.969L159.927 519.969C160.733 519.969 161.385 520.622 161.385 521.427L162.844 521.427C162.844 519.816 161.538 518.51 159.927 518.51L150.812 518.51 150.812 513.379C166.305 512.984 178.544 500.104 178.149 484.611 177.862 473.326 170.839 463.312 160.327 459.196Z" stroke="#9A846D" stroke-width="2.91667" fill="#EDF0EE"/><path d="M132.219 522.156 167.948 522.156 167.948 523.615 132.219 523.615Z" stroke="#9A846D" stroke-width="2.91667" fill="#EDF0EE"/><path d="M141.064 507.248C153.167 512.229 167.017 506.455 171.998 494.352 176.979 482.248 171.205 468.399 159.102 463.418 146.998 458.437 133.149 464.211 128.168 476.314 123.146 488.319 128.808 502.122 140.813 507.144 140.896 507.179 140.98 507.214 141.064 507.248ZM151.035 484.935 158.954 465.695C162.778 472.264 163.292 480.899 160.287 488.743ZM159.732 490.092C156.345 497.777 149.902 503.549 142.562 505.524L150.48 486.285ZM149.687 484.385 140.434 480.573C143.821 472.888 150.264 467.117 157.605 465.141ZM149.135 485.73 141.213 504.971C137.389 498.401 136.874 489.766 139.879 481.922ZM143.827 506.675C151.229 504.37 157.656 498.439 161.081 490.648L170.354 494.465C165.787 504.574 154.476 509.78 143.827 506.675ZM170.91 493.116 161.636 489.299C164.689 481.351 164.297 472.618 160.661 465.771 170.411 471.061 174.781 482.721 170.91 493.116ZM150.112 463.094C152.219 463.094 154.316 463.397 156.337 463.993 148.936 466.298 142.509 472.228 139.086 480.018L129.821 476.206C133.42 468.227 141.359 463.097 150.112 463.094ZM129.258 477.55 138.532 481.367C135.479 489.312 135.87 498.049 139.506 504.895 129.756 499.605 125.386 487.946 129.257 477.55Z" stroke="#9A846D" stroke-width="2.91667" fill="#EDF0EE"/></g></svg>